<svg xmlns="http://www.w3.org/2000/svg" viewBox="0 0 512 512" role="img" aria-label="As-Sunnah Institute">
  <defs>
    <linearGradient id="emeraldBg" x1="0" y1="0" x2="1" y2="1">
      <stop offset="0%" stop-color="#0a5c46"/>
      <stop offset="55%" stop-color="#064e3b"/>
      <stop offset="100%" stop-color="#022c22"/>
    </linearGradient>
    <linearGradient id="goldFrame" x1="0" y1="0" x2="1" y2="1">
      <stop offset="0%" stop-color="#d9b64a"/>
      <stop offset="50%" stop-color="#c9a227"/>
      <stop offset="100%" stop-color="#a8841c"/>
    </linearGradient>
  </defs>
  <!-- Background -->
  <rect width="512" height="512" rx="104" fill="url(#emeraldBg)"/>
  <!-- Decorative border -->
  <rect x="20" y="20" width="472" height="472" rx="84" fill="none" stroke="url(#goldFrame)" stroke-width="12" opacity="0.9"/>
  <rect x="36" y="36" width="440" height="440" rx="68" fill="none" stroke="url(#goldFrame)" stroke-width="3" opacity="0.4"/>
  
  <!-- Centered Emblem (Open Book, Crescent, Star) -->
  <g transform="translate(64 64) scale(6)">
    <!-- Decorative Rings -->
    <circle cx="32" cy="32" r="30" stroke="#d9b64a" stroke-width="1.2" opacity="0.85" fill="none"/>
    <circle cx="32" cy="32" r="27.5" stroke="#d9b64a" stroke-width="0.6" opacity="0.45" fill="none"/>
    
    <!-- Crescent Moon -->
    <path d="M37 11a12 12 0 1 0 6 16 9.8 9.8 0 1 1-6-16z" fill="#d9b64a"/>
    
    <!-- 8-pointed Star -->
    <path d="M42 10.5l.8 1.8 1.8.8-1.8.8-.8 1.8-.8-1.8-1.8-.8 1.8-.8z" fill="#ffffff"/>
    
    <!-- Open Book Left Page -->
    <path d="M14 38c5.4-3.5 11-3.5 16.5 0v11c-5.5-3.5-11-3.5-16.5 0z" fill="#fdfbf5"/>
    <!-- Open Book Right Page -->
    <path d="M33.5 38c5.4-3.5 11-3.5 16.5 0v11c-5.5-3.5-11-3.5-16.5 0z" fill="#fdfbf5" opacity="0.92"/>
    
    <!-- Book Spine -->
    <path d="M32 37.2v12.4" stroke="#d9b64a" stroke-width="1.8" stroke-linecap="round"/>
    
    <!-- Book Lines -->
    <path d="M18 41.5c3-1.4 6-1.4 9 0M18 44.8c3-1.4 6-1.4 9 0M37 41.5c3-1.4 6-1.4 9 0M37 44.8c3-1.4 6-1.4 9 0" stroke="#064e3b" stroke-width="1" stroke-linecap="round" opacity="0.75"/>
  </g>
</svg>
